<svg width="57" height="31" viewBox="0 0 57 31" fill="none" xmlns="http://www.w3.org/2000/svg">
<path d="M4.88423e-05 15.428C4.88423e-05 5.28199 5.32005 -1.2517e-05 15.086 -1.2517e-05C19.76 -1.2517e-05 23.3701 1.21599 26.79 3.79999V15.162C20.9001 15.162 16.34 14.706 9.99405 13.452V14.592C15.9221 15.96 21.2801 16.302 26.79 16.302V26.296C22.762 29.83 19.038 30.856 13.566 30.856C5.32005 30.856 4.88423e-05 25.612 4.88423e-05 15.428ZM40.8438 0.569987C51.7118 0.569987 56.0438 3.72399 56.0438 12.768C56.0438 20.824 51.1418 25.042 42.0978 24.586V30.286H29.1778V0.569987H40.8438ZM38.1838 12.312C40.3118 13.68 45.1378 14.402 47.9878 14.402V13.338C45.1378 13.338 40.7298 12.502 38.8678 11.362L38.1838 12.312Z" fill="url(#paint0_linear_95_26)"/>
<defs>
<linearGradient id="paint0_linear_95_26" x1="-0.949951" y1="15.576" x2="57.05" y2="15.576" gradientUnits="userSpaceOnUse">
<stop stop-color="#ADC4FF"/>
<stop offset="1" stop-color="#E79FFF"/>
</linearGradient>
</defs>
</svg>
